<?xml version="1.0" standalone="no"?>
<!DOCTYPE svg PUBLIC "-//W3C//DTD SVG 20010904//EN"
 "http://www.w3.org/TR/2001/REC-SVG-20010904/DTD/svg10.dtd">
<svg version="1.0" xmlns="http://www.w3.org/2000/svg"
 width="500.000000pt" height="500.000000pt" viewBox="0 0 500.000000 500.000000"
 preserveAspectRatio="xMidYMid meet">
<metadata>
Created by potrace 1.16, written by Peter Selinger 2001-2019
</metadata>
<g transform="translate(0.000000,500.000000) scale(0.100000,-0.100000)"
fill="#000000" stroke="none">
<path d="M1970 3619 c-80 -94 -145 -177 -145 -185 0 -12 675 -818 680 -811 1
1 156 183 344 405 187 221 341 404 341 408 0 3 -68 84 -150 180 l-151 174
-387 0 -387 -1 -145 -170z m510 157 c0 -6 -337 -316 -344 -316 -3 0 -6 72 -6
160 l0 160 175 0 c96 0 175 -2 175 -4z m390 -158 l0 -162 -27 25 c-16 14 -91
83 -168 154 -77 70 -144 132 -149 137 -6 4 70 8 167 8 l177 0 0 -162z m-186
-10 l175 -163 -174 -3 c-95 -1 -256 -1 -356 0 l-182 3 174 162 c96 89 177 162
181 163 3 0 85 -73 182 -162z m-567 -165 c-3 -2 -66 -2 -141 -1 l-136 3 137
160 138 159 3 -158 c1 -87 1 -161 -1 -163z m927 146 c64 -75 116 -140 116
-143 0 -3 -61 -6 -135 -6 l-135 0 0 162 c0 159 0 162 19 143 10 -11 70 -81
135 -156z m-753 -523 c93 -198 168 -361 166 -362 -3 -3 -542 629 -599 702
l-20 25 142 -3 143 -3 168 -359z m545 292 c-19 -40 -89 -190 -156 -333 -68
-143 -135 -286 -150 -318 l-26 -58 -178 378 c-98 208 -181 384 -183 391 -4 9
72 12 360 12 l366 0 -33 -72z m322 63 c-1 -5 -133 -163 -293 -351 -159 -188
-298 -351 -308 -363 -23 -27 -40 -66 164 370 l164 353 138 0 c81 0 137 -4 135
-9z"/>
<path d="M2800 2260 l0 -310 105 0 c115 0 161 12 206 56 l26 24 19 -21 c39
-45 90 -59 217 -59 l117 0 0 148 c-1 192 -19 237 -113 277 -77 32 -177 9 -230
-54 -29 -35 -33 -54 -41 -181 -9 -131 -39 -160 -168 -160 l-78 0 0 295 0 295
-30 0 -30 0 0 -310z m578 81 c43 -23 52 -59 52 -216 l0 -145 -85 0 c-153 0
-178 30 -173 206 3 107 4 115 29 140 42 42 115 48 177 15z"/>
<path d="M1615 2371 c-75 -34 -105 -92 -105 -203 1 -118 43 -184 132 -209 24
-6 124 -9 253 -7 205 3 215 4 244 26 l32 23 32 -23 c45 -32 133 -32 176 0 l31
23 31 -23 c26 -20 45 -23 135 -26 l104 -4 0 221 0 221 -30 0 -30 0 0 -205 0
-205 -59 0 c-115 0 -121 12 -121 240 l0 170 -30 0 -30 0 0 -180 c0 -179 0
-181 -25 -205 -17 -17 -35 -25 -60 -25 -84 0 -95 29 -95 246 l0 164 -30 0 -30
0 0 -179 c0 -165 -2 -180 -21 -205 -20 -25 -24 -26 -125 -26 l-104 0 0 134 c0
74 -5 147 -11 163 -35 94 -165 140 -264 94z m171 -32 c37 -30 44 -65 44 -214
l0 -145 -85 0 c-148 0 -175 29 -175 190 0 137 19 172 105 190 35 7 89 -3 111
-21z"/>
<path d="M3030 1615 c0 -140 2 -165 15 -165 12 0 15 17 15 90 0 102 15 130 69
130 51 0 71 -38 71 -136 0 -68 3 -84 15 -84 12 0 15 16 15 86 0 81 -1 87 -29
115 -31 31 -83 39 -122 19 -18 -10 -19 -7 -19 50 0 47 -3 60 -15 60 -13 0 -15
-25 -15 -165z"/>
<path d="M1110 1565 c0 -92 3 -115 14 -115 11 0 15 21 18 91 3 81 6 93 27 110
30 25 66 24 91 -1 17 -17 20 -33 20 -110 0 -83 1 -90 20 -90 19 0 20 7 20 90
0 77 3 93 20 110 25 25 61 26 91 1 21 -17 24 -29 27 -110 3 -70 7 -91 18 -91
20 0 19 141 -1 180 -26 51 -86 65 -145 35 -27 -14 -33 -14 -60 0 -34 17 -83
20 -111 5 -13 -7 -19 -7 -19 0 0 5 -7 10 -15 10 -12 0 -15 -19 -15 -115z"/>
<path d="M1571 1654 c-28 -23 -31 -31 -31 -84 0 -43 5 -64 20 -83 25 -32 81
-44 118 -27 19 8 28 8 30 1 2 -6 10 -11 18 -11 11 0 14 22 14 115 0 96 -3 115
-15 115 -8 0 -15 -5 -15 -10 0 -7 -6 -7 -19 0 -35 18 -87 12 -120 -16z m118
-10 c28 -35 29 -122 3 -155 -23 -28 -73 -30 -102 -4 -29 26 -29 136 0 165 29
29 74 26 99 -6z"/>
<path d="M2075 1657 c-33 -27 -45 -100 -25 -147 21 -50 93 -75 141 -50 13 7
19 7 19 0 0 -5 9 -10 20 -10 19 0 20 7 20 115 0 108 -1 115 -20 115 -11 0 -20
-5 -20 -12 0 -9 -3 -9 -12 0 -21 21 -94 15 -123 -11z m115 -7 c16 -16 20 -33
20 -82 0 -72 -5 -83 -43 -97 -62 -24 -102 24 -94 113 7 78 70 113 117 66z"/>
<path d="M2555 1657 c-33 -27 -45 -100 -25 -147 21 -50 93 -75 141 -50 13 7
19 7 19 0 0 -5 9 -10 20 -10 19 0 20 7 20 115 0 108 -1 115 -20 115 -11 0 -20
-5 -20 -12 0 -9 -3 -9 -12 0 -21 21 -94 15 -123 -11z m115 -7 c16 -16 20 -33
20 -82 0 -72 -5 -83 -43 -97 -62 -24 -102 24 -94 113 7 78 70 113 117 66z"/>
<path d="M3391 1654 c-28 -23 -31 -31 -31 -84 0 -43 5 -64 20 -83 28 -35 81
-45 126 -23 40 18 54 49 54 112 0 93 -98 138 -169 78z m118 -10 c28 -35 29
-122 3 -155 -23 -28 -73 -30 -102 -4 -29 26 -29 136 0 165 29 29 74 26 99 -6z"/>
<path d="M3610 1565 c0 -96 3 -115 15 -115 12 0 15 16 15 84 0 69 4 88 21 110
25 32 66 34 97 6 19 -18 22 -31 22 -110 0 -73 3 -90 15 -90 12 0 15 16 15 86
0 81 -1 87 -29 115 -31 31 -83 39 -122 19 -13 -7 -19 -7 -19 0 0 5 -7 10 -15
10 -12 0 -15 -19 -15 -115z"/>
</g>
</svg>
